Coordinates
version=1
nRows=10
nColumns=22
inDegrees=yes

Units are S.I. units (second, meters, Newtons, ...)
If the header above contains a line with 'inDegrees', this indicates whether rotational values are in degrees (yes) or radians (no).

endheader
time	pelvis_tilt	pelvis_list	pelvis_rotation	pelvis_tx	pelvis_ty	pelvis_tz	hip_flexion_r	hip_adduction_r	hip_rotation_r	knee_angle_r	ankle_angle_r	subtalar_angle_r	hip_flexion_l	hip_adduction_l	hip_rotation_l	knee_angle_l	ankle_angle_l	subtalar_angle_l	lumbar_extension	lumbar_bending	lumbar_rotation
      4.06000000	     -8.87737185	     -3.03936577	     -4.99935312	      1.28498187	      0.95685820	      0.28507521	      7.41646733	      2.03125951	     -1.04233813	    -42.82288287	     15.83596684	      7.40652406	     37.29000312	     -2.40563964	     -2.18149775	    -27.25963701	      4.46587986	      2.00444654	      1.57102810	      4.94044154	      8.26109510
      4.07000000	     -8.95838497	     -2.70127476	     -5.16285059	      1.29217235	      0.95779114	      0.28341713	      8.51104952	      1.45891000	     -0.99245066	    -44.94903266	     14.66312538	      6.75996847	     36.92564065	     -2.02875780	     -2.45960088	    -27.30011345	      4.98857040	      1.51507935	      1.70559927	      4.59347846	      8.31760226
      4.08000000	     -9.04081583	     -2.34526454	     -5.34434125	      1.29913701	      0.95871949	      0.28188424	      9.64807056	      0.87294780	     -0.94853400	    -47.02775513	     13.67344388	      6.01123989	     36.54937682	     -1.65354818	     -2.77336085	    -27.28513513	      5.45671895	      1.18564070	      1.83543366	      4.21713083	      8.37042018
      4.09000000	     -9.14469722	     -2.00794800	     -5.51891277	      1.30586452	      0.95959732	      0.28043802	     10.82381529	      0.31576657	     -0.93519571	    -49.00083746	     12.88371197	      5.14003164	     36.19794016	     -1.29341966	     -3.05068696	    -27.23863875	      5.87276120	      0.87260800	      1.98061225	      3.85816090	      8.39103122
      4.10000000	     -9.25145490	     -1.68683952	     -5.67057626	      1.31237187	      0.96044953	      0.27906226	     11.99966767	     -0.21882053	     -0.96372561	    -50.81784538	     12.33347596	      4.25683454	     35.85804426	     -0.93845927	     -3.28940971	    -27.17056138	      6.23809781	      0.59176655	      2.11989137	      3.50713988	      8.35984207
      4.11000000	     -9.34833716	     -1.39278422	     -5.78269045	      1.31868042	      0.96130034	      0.27773164	     13.14214154	     -0.72591746	     -1.05413367	    -52.43097260	     12.03565763	      3.41597122	     35.51855359	     -0.58991500	     -3.47871844	    -27.08747493	      6.56574975	      0.34408300	      2.24005405	      3.17396993	      8.26476172
      4.12000000	     -9.42925784	     -1.13536796	     -5.84168868	      1.32480209	      0.96216530	      0.27641429	     14.22828059	     -1.19462105	     -1.20558647	    -53.80496935	     11.97822818	      2.60104001	     35.16988753	     -0.24554186	     -3.59355102	    -26.98569608	      6.86609967	      0.12238427	      2.33118195	      2.87118517	      8.09346001
      4.13000000	     -9.48457787	     -0.92138061	     -5.84254043	      1.33075551	      0.96305918	      0.27511590	     15.23734508	     -1.61649725	     -1.41680260	    -54.92169620	     12.15401785	      1.85019981	     34.80286795	      0.08717467	     -3.64277126	    -26.87321366	      7.15350307	     -0.06500030	      2.38271153	      2.60220237	      7.84079100
      4.14000000	     -9.50141180	     -0.74630848	     -5.76439789	      1.33653999	      0.96401446	      0.27379729	     16.14662948	     -1.99599301	     -1.68232532	    -55.77228711	     12.57084350	      1.35845116	     34.39871003	      0.42674648	     -3.60379622	    -26.73679641	      7.38730953	     -0.16974616	      2.37584406	      2.35789746	      7.49939889
      4.15000000	     -9.52571725	     -0.64290343	     -5.65947997	      1.34214399	      0.96494824	      0.27256182	     17.01303286	     -2.27031539	     -1.96722891	    -56.36023077	     12.99315218	      0.56512629	     34.01700571	      0.69227627	     -3.56525933	    -26.61434736	      7.67094443	     -0.35313785	      2.36404639	      2.18811690	      7.11558046
